# xmcd
#
# Track frame offsets:
#	150
#	10767
#	24075
#	38605
#	52947
#	67147
#	80260
#	94422
#	109392
#	121867
#	126285
#	135282
#	143550
#	150150
#	155815
#	173065
#	182635
#	195435
#	212555
# Disc length: 3196 seconds
# Revision: 1
# Processed by: cddbd v1.5.2PL0 Copyright (c) Steve Scherf et al.
#
# Submitted via: libkcddb 0.31
#
DISCID=ec0c7a13
DTITLE=Various Artist - Música de Marimba Vol. 1
DYEAR=1900
DGENRE=Folklore
TTITLE0=Turismo Guatemalteco
TTITLE1=Luna de Xelajú
TTITLE2=Tecpán Guatemala
TTITLE3=Luna de Miel en Río Dulce
TTITLE4=Antigua Guatemala
TTITLE5=Ferrocarril de Los Altos
TTITLE6=Recorrido Sanjuanero
TTITLE7=San Miguel Totonicapán
TTITLE8=Xelajú de mis Recuerdos
TTITLE9=Rascantes (Tema principal)
TTITLE10=Mujer inquieta
TTITLE11=La Riña
TTITLE12=El Torero
TTITLE13=Reconciliación y Danza Final
TTITLE14=Ushume (Poza Encantada) Son de Proyección Folklórica
TTITLE15=El Quiroa San Barreño
TTITLE16=O She Tan Kake Son Típico
TTITLE17=Nochebuena Son de Pascua
TTITLE18=Obertura Indígena No. 3
EXTD=Marimba del INGUAT - Guatemala
EXTT0=
EXTT1=
EXTT2=
EXTT3=
EXTT4=
EXTT5=
EXTT6=
EXTT7=
EXTT8=
EXTT9=
EXTT10=
EXTT11=
EXTT12=
EXTT13=
EXTT14=
EXTT15=
EXTT16=
EXTT17=
EXTT18=
PLAYORDER=
